<svg width="214" height="214" viewBox="0 0 214 214" fill="none" xmlns="http://www.w3.org/2000/svg">
<g filter="url(#filter0_b_138_294)">
<circle cx="107" cy="107" r="107" fill="black" fill-opacity="0.1"/>
<circle cx="107" cy="107" r="106.5" stroke="#F8F8F8"/>
</g>
<path d="M42.2113 101C43.678 101.08 44.7913 101.48 45.5513 102.2C46.3247 102.907 46.7113 103.833 46.7113 104.98C46.7113 105.78 46.518 106.493 46.1313 107.12C45.7447 107.733 45.1713 108.22 44.4113 108.58C43.6513 108.94 42.7247 109.12 41.6313 109.12C40.618 109.12 39.658 108.96 38.7513 108.64C37.858 108.307 37.138 107.867 36.5913 107.32L37.2913 106.18C37.758 106.66 38.378 107.053 39.1513 107.36C39.9247 107.653 40.7513 107.8 41.6313 107.8C42.778 107.8 43.6647 107.553 44.2913 107.06C44.918 106.553 45.2313 105.86 45.2313 104.98C45.2313 104.113 44.918 103.433 44.2913 102.94C43.6647 102.447 42.718 102.2 41.4513 102.2H40.4513V101.14L44.3313 96.28H37.1713V95H46.1713V96.02L42.2113 101ZM52.7204 95V109H51.2804V96.28H47.9804V95H52.7204ZM60.047 95V109H58.607V96.28H55.307V95H60.047ZM81.5679 98.48V109H80.2679V100.68L76.0079 107.72H75.3679L71.1079 100.66V109H69.8079V98.48H71.2479L75.7079 106.06L80.2479 98.48H81.5679Z" fill="#F8F8F8"/>
<path d="M147.227 95V109H145.807V97.8L140.307 107.22H139.607L134.107 97.86V109H132.687V95H133.907L139.987 105.38L146.007 95H147.227ZM156.044 109.1C155.031 109.1 154.118 108.873 153.304 108.42C152.491 107.953 151.851 107.313 151.384 106.5C150.918 105.687 150.684 104.767 150.684 103.74C150.684 102.713 150.918 101.793 151.384 100.98C151.851 100.167 152.491 99.5333 153.304 99.08C154.118 98.6267 155.031 98.4 156.044 98.4C157.058 98.4 157.971 98.6267 158.784 99.08C159.598 99.5333 160.231 100.167 160.684 100.98C161.151 101.793 161.384 102.713 161.384 103.74C161.384 104.767 161.151 105.687 160.684 106.5C160.231 107.313 159.598 107.953 158.784 108.42C157.971 108.873 157.058 109.1 156.044 109.1ZM156.044 107.84C156.791 107.84 157.458 107.673 158.044 107.34C158.644 106.993 159.111 106.507 159.444 105.88C159.778 105.253 159.944 104.54 159.944 103.74C159.944 102.94 159.778 102.227 159.444 101.6C159.111 100.973 158.644 100.493 158.044 100.16C157.458 99.8133 156.791 99.64 156.044 99.64C155.298 99.64 154.624 99.8133 154.024 100.16C153.438 100.493 152.971 100.973 152.624 101.6C152.291 102.227 152.124 102.94 152.124 103.74C152.124 104.54 152.291 105.253 152.624 105.88C152.971 106.507 153.438 106.993 154.024 107.34C154.624 107.673 155.298 107.84 156.044 107.84ZM169.939 98.4C170.926 98.4 171.819 98.6267 172.619 99.08C173.419 99.52 174.046 100.147 174.499 100.96C174.953 101.773 175.179 102.7 175.179 103.74C175.179 104.793 174.953 105.727 174.499 106.54C174.046 107.353 173.419 107.987 172.619 108.44C171.833 108.88 170.939 109.1 169.939 109.1C169.086 109.1 168.313 108.927 167.619 108.58C166.939 108.22 166.379 107.7 165.939 107.02V112.88H164.519V98.48H165.879V100.56C166.306 99.8667 166.866 99.3333 167.559 98.96C168.266 98.5867 169.059 98.4 169.939 98.4ZM169.839 107.84C170.573 107.84 171.239 107.673 171.839 107.34C172.439 106.993 172.906 106.507 173.239 105.88C173.586 105.253 173.759 104.54 173.759 103.74C173.759 102.94 173.586 102.233 173.239 101.62C172.906 100.993 172.439 100.507 171.839 100.16C171.239 99.8133 170.573 99.64 169.839 99.64C169.093 99.64 168.419 99.8133 167.819 100.16C167.233 100.507 166.766 100.993 166.419 101.62C166.086 102.233 165.919 102.94 165.919 103.74C165.919 104.54 166.086 105.253 166.419 105.88C166.766 106.507 167.233 106.993 167.819 107.34C168.419 107.673 169.093 107.84 169.839 107.84ZM187.53 104.18L178.73 104.18C178.81 105.273 179.23 106.16 179.99 106.84C180.75 107.507 181.71 107.84 182.87 107.84C183.523 107.84 184.123 107.727 184.67 107.5C185.217 107.26 185.69 106.913 186.09 106.46L186.89 107.38C186.423 107.94 185.837 108.367 185.13 108.66C184.437 108.953 183.67 109.1 182.83 109.1C181.75 109.1 180.79 108.873 179.95 108.42C179.123 107.953 178.477 107.313 178.01 106.5C177.543 105.687 177.31 104.767 177.31 103.74C177.31 102.713 177.53 101.793 177.97 100.98C178.423 100.167 179.037 99.5333 179.81 99.08C180.597 98.6267 181.477 98.4 182.45 98.4C183.423 98.4 184.297 98.6267 185.07 99.08C185.843 99.5333 186.45 100.167 186.89 100.98C187.33 101.78 187.55 102.7 187.55 103.74L187.53 104.18ZM182.45 99.62C181.437 99.62 180.583 99.9467 179.89 100.6C179.21 101.24 178.823 102.08 178.73 103.12L186.19 103.12C186.097 102.08 185.703 101.24 185.01 100.6C184.33 99.9467 183.477 99.62 182.45 99.62Z" fill="#F8F8F8"/>
<path d="M105.5 34V175.5M105.5 34L123 51.5M105.5 34L88 51.5M105.5 175.5L123 158M105.5 175.5L88 158" stroke="#F8F8F8"/>
<defs>
<filter id="filter0_b_138_294" x="-8" y="-8" width="230" height="230" filterUnits="userSpaceOnUse" color-interpolation-filters="sRGB">
<feFlood flood-opacity="0" result="BackgroundImageFix"/>
<feGaussianBlur in="BackgroundImage" stdDeviation="4"/>
<feComposite in2="SourceAlpha" operator="in" result="effect1_backgroundBlur_138_294"/>
<feBlend mode="normal" in="SourceGraphic" in2="effect1_backgroundBlur_138_294" result="shape"/>
</filter>
</defs>
</svg>
