<svg width="100" height="16" viewBox="0 0 100 16" fill="none" xmlns="http://www.w3.org/2000/svg">
<path fill-rule="evenodd" clip-rule="evenodd" d="M31.7645 0H0.890625V16H31.7645V0ZM2.11006 1.68081V7.11111H4.98085C5.5757 7.11111 6.05675 6.96889 6.424 6.68444C6.79126 6.39483 6.97488 6.01212 6.97488 5.53632C6.97488 5.14844 6.86109 4.82521 6.63349 4.56663C6.4059 4.30804 6.17572 4.15289 5.94295 4.10117C6.08261 4.04945 6.22486 3.93051 6.36969 3.74432C6.5197 3.55297 6.5947 3.328 6.5947 3.06941C6.5947 2.6143 6.43176 2.27038 6.10589 2.03766C5.78002 1.79976 5.36621 1.68081 4.86447 1.68081H2.11006ZM4.65498 5.76905H3.77822V4.86917H4.65498C4.80498 4.86917 4.92395 4.91313 5.01189 5.00105C5.10499 5.0838 5.15155 5.1924 5.15155 5.32687C5.15155 5.46133 5.10499 5.56994 5.01189 5.65269C4.92395 5.73026 4.80498 5.76905 4.65498 5.76905ZM4.62394 3.70554H3.77822V2.97632H4.62394C4.73774 2.97632 4.83085 3.01253 4.90326 3.08493C4.98085 3.15216 5.01965 3.24267 5.01965 3.35644C5.01965 3.45988 4.98085 3.54521 4.90326 3.61244C4.83085 3.6745 4.73774 3.70554 4.62394 3.70554ZM12.8021 7.04895L11.2279 4.98554C11.5383 4.83038 11.7814 4.61834 11.9572 4.34941C12.1331 4.07531 12.221 3.7676 12.221 3.42626C12.221 2.91943 12.0348 2.50311 11.6624 2.17729C11.29 1.8463 10.796 1.68081 10.1805 1.68081H7.55795V7.11111H9.22611V5.17172H9.45888L10.902 7.11111H12.7767H12.8495H14.4991L14.8948 6.09487H16.6639L17.0518 7.11111H18.8441L16.6018 1.64978H15.0112L12.8021 7.04895ZM9.98648 3.95378H9.22611V3.07717H9.98648C10.1417 3.07717 10.2658 3.11596 10.3589 3.19354C10.4572 3.27111 10.5063 3.37713 10.5063 3.5116C10.5063 3.64606 10.4572 3.75467 10.3589 3.83741C10.2658 3.91499 10.1417 3.95378 9.98648 3.95378ZM16.175 4.8459H15.3759L15.7793 3.55814L16.175 4.8459ZM19.2569 1.68081V7.11111H20.8552V4.47354L22.9656 7.11111H24.339V1.68081H22.7562V4.30287L20.6768 1.68081H19.2569ZM25.1594 1.68081V7.11111H27.4483C28.338 7.11111 29.0647 6.8577 29.6285 6.35087C30.1923 5.84404 30.4742 5.1924 30.4742 4.39596C30.4742 3.59952 30.1923 2.94788 29.6285 2.44105C29.0647 1.93422 28.338 1.68081 27.4483 1.68081H25.1594ZM27.3397 5.67596H26.8276V3.11596H27.3397C27.7948 3.11596 28.144 3.22457 28.3871 3.44178C28.6302 3.65899 28.7518 3.97705 28.7518 4.39596C28.7518 4.81487 28.6302 5.13293 28.3871 5.35014C28.144 5.56735 27.7948 5.67596 27.3397 5.67596ZM7.40162 14.7071L5.78002 12.5815C6.09037 12.4263 6.33348 12.2143 6.50935 11.9454C6.68522 11.6713 6.77315 11.3636 6.77315 11.0222C6.77315 10.5154 6.58694 10.0991 6.21451 9.77325C5.84209 9.44226 5.34811 9.27677 4.73257 9.27677H2.11006V14.7071H3.77822V12.7677H4.01099L5.45414 14.7071H7.40162ZM4.53859 11.5497H3.77822V10.6731H4.53859C4.69377 10.6731 4.81792 10.7119 4.91102 10.7895C5.0093 10.8671 5.05844 10.9731 5.05844 11.1076C5.05844 11.242 5.0093 11.3506 4.91102 11.4334C4.81792 11.511 4.69377 11.5497 4.53859 11.5497ZM10.3351 13.2952C9.98335 13.2952 9.69369 13.1737 9.46609 12.9306C9.24367 12.6823 9.13246 12.3695 9.13246 11.9919C9.13246 11.6144 9.24367 11.3041 9.46609 11.061C9.69369 10.8128 9.98335 10.6886 10.3351 10.6886C10.6868 10.6886 10.9739 10.8128 11.1963 11.061C11.4239 11.3041 11.5377 11.6144 11.5377 11.9919C11.5377 12.3695 11.4239 12.6823 11.1963 12.9306C10.9739 13.1737 10.6868 13.2952 10.3351 13.2952ZM10.3351 14.8157C11.173 14.8157 11.8662 14.5416 12.4145 13.9934C12.9628 13.44 13.2369 12.7728 13.2369 11.9919C13.2369 11.211 12.9628 10.5464 12.4145 9.99822C11.8662 9.44485 11.173 9.16816 10.3351 9.16816C9.49713 9.16816 8.80142 9.44485 8.24795 9.99822C7.69965 10.5464 7.42551 11.211 7.42551 11.9919C7.42551 12.7677 7.69965 13.4322 8.24795 13.9856C8.80142 14.539 9.49713 14.8157 10.3351 14.8157ZM16.6695 13.2952C16.3178 13.2952 16.0281 13.1737 15.8005 12.9306C15.5781 12.6823 15.4669 12.3695 15.4669 11.9919C15.4669 11.6144 15.5781 11.3041 15.8005 11.061C16.0281 10.8128 16.3178 10.6886 16.6695 10.6886C17.0212 10.6886 17.3083 10.8128 17.5307 11.061C17.7583 11.3041 17.8721 11.6144 17.8721 11.9919C17.8721 12.3695 17.7583 12.6823 17.5307 12.9306C17.3083 13.1737 17.0212 13.2952 16.6695 13.2952ZM16.6695 14.8157C17.5075 14.8157 18.2006 14.5416 18.7489 13.9934C19.2972 13.44 19.5713 12.7728 19.5713 11.9919C19.5713 11.211 19.2972 10.5464 18.7489 9.99822C18.2006 9.44485 17.5075 9.16816 16.6695 9.16816C15.8315 9.16816 15.1358 9.44485 14.5824 9.99822C14.0341 10.5464 13.7599 11.211 13.7599 11.9919C13.7599 12.7677 14.0341 13.4322 14.5824 13.9856C15.1358 14.539 15.8315 14.8157 16.6695 14.8157ZM21.9021 9.27677H20.2495V14.7071H21.8633V11.6661L22.6625 12.9616H23.5625L24.3307 11.6661V14.7071H25.929V9.27677H24.2841L23.0892 11.2084L21.9021 9.27677Z" fill="#858685"/>
<path d="M33.2207 0H36.599V11.7771H33.2207V0Z" fill="#858685"/>
<path d="M33.2207 13.2324H36.599V16.0008H33.2207V13.2324Z" fill="#858685"/>
<path d="M42.1017 5.25955L43.1996 1.53824H43.5436L43.2656 2.64317L42.0947 6.59727H41.7646L42.1017 5.25955ZM40.8265 1.53824L41.7507 5.2248L42.0287 6.59727H41.6847L40.3887 1.53824H40.8265ZM45.0238 5.2248L45.9341 1.53824H46.3719L45.0794 6.59727H44.7354L45.0238 5.2248ZM43.5818 1.53824L44.6659 5.25955L44.9995 6.59727H44.6694L43.5228 2.64317L43.2413 1.53824H43.5818Z" fill="#858685"/>
<path d="M50.3434 6.23244V6.59727H47.4977V6.23244H50.3434ZM47.6263 1.53824V6.59727H47.1989V1.53824H47.6263ZM49.989 3.80716V4.172H47.4977V3.80716H49.989ZM50.3261 1.53824V1.90655H47.4977V1.53824H50.3261Z" fill="#858685"/>
<path d="M52.9911 4.16505H51.5665L51.5595 3.80369H52.7861C53.0362 3.80369 53.2494 3.76778 53.4254 3.69597C53.6015 3.62417 53.7346 3.51761 53.825 3.37631C53.9176 3.23269 53.964 3.05665 53.964 2.84817C53.964 2.63506 53.9188 2.45901 53.8285 2.32003C53.7381 2.17873 53.6026 2.07449 53.4219 2.00731C53.2413 1.94014 53.0142 1.90655 52.7409 1.90655H51.6777V6.59727H51.2503V1.53824H52.7409C52.998 1.53824 53.2285 1.56372 53.4324 1.61468C53.6362 1.66564 53.8099 1.74556 53.9535 1.85443C54.0972 1.9633 54.206 2.10113 54.2802 2.26791C54.3566 2.43237 54.3948 2.62927 54.3948 2.85859C54.3948 3.06707 54.3485 3.25586 54.2558 3.42495C54.1632 3.59174 54.0323 3.7284 53.8632 3.83496C53.6964 3.9392 53.4961 4.00406 53.2621 4.02954L52.9911 4.16505ZM52.9598 6.59727H51.431L51.6499 6.23244H52.9598C53.21 6.23244 53.4231 6.19074 53.5991 6.10735C53.7775 6.02165 53.9142 5.90003 54.0091 5.74252C54.1041 5.585 54.1516 5.39737 54.1516 5.17963C54.1516 4.98737 54.1099 4.8148 54.0265 4.66192C53.9431 4.50903 53.8157 4.38858 53.6443 4.30056C53.4729 4.21022 53.2551 4.16505 52.9911 4.16505H52.1051L52.112 3.80369H53.3663L53.4428 3.93225C53.6698 3.95541 53.8678 4.02606 54.0369 4.1442C54.2083 4.26002 54.3404 4.40711 54.433 4.58547C54.528 4.76384 54.5755 4.95957 54.5755 5.17268C54.5755 5.47845 54.5072 5.73789 54.3705 5.951C54.2361 6.16179 54.0474 6.32278 53.8041 6.43397C53.5632 6.54284 53.2818 6.59727 52.9598 6.59727Z" fill="#858685"/>
<path d="M58.7346 6.59727H57.588L57.5949 6.23244H58.7346C59.0983 6.23244 59.411 6.15136 59.6728 5.98922C59.9368 5.82475 60.1407 5.59774 60.2843 5.30819C60.4279 5.01864 60.4997 4.68276 60.4997 4.30056V3.82801C60.4997 3.53614 60.458 3.27207 60.3746 3.0358C60.2935 2.79953 60.1766 2.598 60.0237 2.43122C59.8708 2.26212 59.6878 2.1324 59.4747 2.04206C59.2639 1.95172 59.0276 1.90655 58.7659 1.90655H57.5671V1.53824H58.7659C59.0809 1.53824 59.3693 1.59268 59.6311 1.70155C59.8951 1.8081 60.1233 1.9633 60.3156 2.16715C60.5101 2.36867 60.6595 2.61074 60.7638 2.89334C60.8703 3.17594 60.9236 3.49097 60.9236 3.83843V4.30056C60.9236 4.64802 60.8703 4.96305 60.7638 5.24565C60.6595 5.52825 60.5101 5.77032 60.3156 5.97184C60.121 6.17337 59.8905 6.32857 59.6241 6.43744C59.3577 6.544 59.0612 6.59727 58.7346 6.59727ZM57.7791 1.53824V6.59727H57.3517V1.53824H57.7791Z" fill="#858685"/>
<path d="M65.1592 6.23244V6.59727H62.3135V6.23244H65.1592ZM62.442 1.53824V6.59727H62.0146V1.53824H62.442ZM64.8047 3.80716V4.172H62.3135V3.80716H64.8047ZM65.1418 1.53824V1.90655H62.3135V1.53824H65.1418Z" fill="#858685"/>
<path d="M68.9291 5.35336C68.9291 5.21438 68.9059 5.09045 68.8596 4.98158C68.8133 4.87271 68.7368 4.77542 68.6303 4.68971C68.5261 4.60169 68.3848 4.52061 68.2064 4.44649C68.0303 4.37005 67.8103 4.29476 67.5462 4.22064C67.2937 4.14883 67.0656 4.07007 66.8617 3.98437C66.6579 3.89866 66.483 3.80021 66.337 3.68902C66.1934 3.57784 66.0834 3.44812 66.007 3.29987C65.9305 3.1493 65.8923 2.97441 65.8923 2.7752C65.8923 2.58062 65.934 2.40342 66.0174 2.24359C66.1008 2.08376 66.2178 1.94593 66.3683 1.83011C66.5212 1.71429 66.7007 1.62511 66.9069 1.56256C67.1154 1.50002 67.3435 1.46875 67.5914 1.46875C67.9458 1.46875 68.2516 1.53593 68.5087 1.67028C68.7681 1.80463 68.9685 1.98647 69.1098 2.21579C69.2534 2.4428 69.3252 2.6976 69.3252 2.9802H68.8978C68.8978 2.76015 68.8457 2.56441 68.7415 2.393C68.6396 2.21927 68.4913 2.08376 68.2967 1.98647C68.1045 1.88686 67.8694 1.83706 67.5914 1.83706C67.3134 1.83706 67.0795 1.87991 66.8895 1.96562C66.7019 2.04901 66.5594 2.16136 66.4621 2.30266C66.3672 2.44164 66.3197 2.59684 66.3197 2.76825C66.3197 2.88871 66.3428 2.99989 66.3892 3.10182C66.4355 3.20142 66.5108 3.29524 66.615 3.38326C66.7216 3.46897 66.8617 3.55004 67.0354 3.62648C67.2092 3.70061 67.4234 3.77126 67.6782 3.83843C67.947 3.91256 68.1855 3.99479 68.394 4.08513C68.6025 4.17547 68.7785 4.27971 68.9222 4.39785C69.0658 4.51367 69.1746 4.64918 69.2488 4.80437C69.3229 4.95957 69.36 5.14025 69.36 5.34641C69.36 5.55257 69.3159 5.73789 69.2279 5.90235C69.1422 6.0645 69.0206 6.20233 68.8631 6.31583C68.7079 6.42933 68.5237 6.5162 68.3106 6.57643C68.0998 6.63665 67.8694 6.66676 67.6192 6.66676C67.3945 6.66676 67.171 6.63781 66.9486 6.5799C66.7262 6.52199 66.5224 6.43281 66.337 6.31235C66.1541 6.18959 66.007 6.03207 65.8958 5.83981C65.7869 5.64755 65.7325 5.41822 65.7325 5.15184H66.1564C66.1564 5.36494 66.1992 5.54447 66.2849 5.6904C66.3706 5.83633 66.4841 5.95447 66.6254 6.04481C66.7691 6.13515 66.9266 6.20117 67.098 6.24286C67.2717 6.28224 67.4454 6.30193 67.6192 6.30193C67.8856 6.30193 68.116 6.26255 68.3106 6.18379C68.5075 6.10504 68.6592 5.99501 68.7658 5.85371C68.8747 5.71009 68.9291 5.54331 68.9291 5.35336Z" fill="#858685"/>
<path d="M70.8054 1.53824V6.59727H70.378V1.53824H70.8054Z" fill="#858685"/>
<path d="M75.8297 4.19284V5.99269C75.7718 6.0784 75.6722 6.17337 75.5309 6.27761C75.3896 6.38185 75.1996 6.47334 74.961 6.5521C74.7224 6.62854 74.4259 6.66676 74.0715 6.66676C73.775 6.66676 73.5028 6.61349 73.255 6.50693C73.0071 6.40038 72.7917 6.24634 72.6087 6.04481C72.428 5.84097 72.2879 5.59659 72.1883 5.31167C72.091 5.02675 72.0424 4.70709 72.0424 4.35268V3.74114C72.0424 3.39368 72.0875 3.08097 72.1779 2.803C72.2682 2.52271 72.3991 2.28297 72.5705 2.08376C72.7419 1.88454 72.9481 1.73282 73.189 1.62858C73.4322 1.52203 73.7044 1.46875 74.0055 1.46875C74.3808 1.46875 74.697 1.53361 74.9541 1.66333C75.2112 1.79305 75.4116 1.97141 75.5552 2.19842C75.7011 2.42311 75.7915 2.67791 75.8262 2.96283H75.3988C75.3664 2.7613 75.2992 2.57599 75.1973 2.40689C75.0954 2.23548 74.9471 2.09765 74.7526 1.99342C74.5603 1.88918 74.3113 1.83706 74.0055 1.83706C73.76 1.83706 73.5411 1.88223 73.3488 1.97257C73.1589 2.06291 72.999 2.19147 72.8693 2.35825C72.7396 2.52503 72.6411 2.7254 72.574 2.95936C72.5068 3.191 72.4732 3.44928 72.4732 3.73419V4.35268C72.4732 4.64918 72.5103 4.91672 72.5844 5.15531C72.6608 5.3939 72.7697 5.5989 72.911 5.77032C73.0523 5.94173 73.2214 6.07376 73.4183 6.16642C73.6152 6.25676 73.8341 6.30193 74.075 6.30193C74.3321 6.30193 74.551 6.27761 74.7317 6.22896C74.9124 6.18032 75.0572 6.12241 75.166 6.05523C75.2772 5.98574 75.3571 5.92088 75.4058 5.86066V4.55768H74.0472V4.19284H75.8297Z" fill="#858685"/>
<path d="M80.8192 1.53824V6.59727H80.3884L77.4801 2.27486V6.59727H77.0527V1.53824H77.4801L80.3953 5.86066V1.53824H80.8192Z" fill="#858685"/>
<path d="M82.633 1.53824V6.59727H82.2056V1.53824H82.633Z" fill="#858685"/>
<path d="M87.7754 1.53824V6.59727H87.3445L84.4363 2.27486V6.59727H84.0089V1.53824H84.4363L87.3515 5.86066V1.53824H87.7754Z" fill="#858685"/>
<path d="M40.9516 9.88966H41.3824L43.2517 14.3441L45.1246 9.88966H45.5519L43.4151 14.9487H43.0884L40.9516 9.88966ZM40.8195 9.88966H41.1983L41.2434 12.7388V14.9487H40.8195V9.88966ZM45.3122 9.88966H45.6909V14.9487H45.2635V12.7388L45.3122 9.88966Z" fill="#858685"/>
<path d="M48.6999 10.1919L46.9487 14.9487H46.504L48.415 9.88966H48.7243L48.6999 10.1919ZM50.2913 14.9487L48.5366 10.1919L48.5123 9.88966H48.8215L50.7361 14.9487H50.2913ZM49.9786 13.1627V13.531H47.2927V13.1627H49.9786Z" fill="#858685"/>
<path d="M52.8695 14.9487H51.7228L51.7298 14.5839H52.8695C53.2331 14.5839 53.5459 14.5028 53.8076 14.3406C54.0717 14.1762 54.2755 13.9492 54.4191 13.6596C54.5628 13.3701 54.6346 13.0342 54.6346 12.652V12.1794C54.6346 11.8876 54.5929 11.6235 54.5095 11.3872C54.4284 11.1509 54.3114 10.9494 54.1585 10.7826C54.0057 10.6135 53.8227 10.4838 53.6096 10.3935C53.3988 10.3031 53.1625 10.258 52.9007 10.258H51.702V9.88966H52.9007C53.2158 9.88966 53.5042 9.94409 53.7659 10.053C54.03 10.1595 54.2582 10.3147 54.4504 10.5186C54.645 10.7201 54.7944 10.9622 54.8986 11.2448C55.0052 11.5274 55.0585 11.8424 55.0585 12.1898V12.652C55.0585 12.9994 55.0052 13.3145 54.8986 13.5971C54.7944 13.8797 54.645 14.1217 54.4504 14.3233C54.2558 14.5248 54.0254 14.68 53.759 14.7889C53.4926 14.8954 53.1961 14.9487 52.8695 14.9487ZM51.9139 9.88966V14.9487H51.4866V9.88966H51.9139Z" fill="#858685"/>
<path d="M59.294 14.5839V14.9487H56.4483V14.5839H59.294ZM56.5769 9.88966V14.9487H56.1495V9.88966H56.5769ZM58.9396 12.1586V12.5234H56.4483V12.1586H58.9396ZM59.2766 9.88966V10.258H56.4483V9.88966H59.2766Z" fill="#858685"/>
<path d="M62.4594 9.88966V14.9487H62.032V9.88966H62.4594Z" fill="#858685"/>
<path d="M67.6018 9.88966V14.9487H67.171L64.2627 10.6263V14.9487H63.8353V9.88966H64.2627L67.1779 14.2121V9.88966H67.6018Z" fill="#858685"/>
<path d="M72.3724 12.5165H70.9479L70.9409 12.1551H72.1674C72.4176 12.1551 72.6307 12.1192 72.8068 12.0474C72.9828 11.9756 73.116 11.869 73.2064 11.7277C73.299 11.5841 73.3453 11.4081 73.3453 11.1996C73.3453 10.9865 73.3002 10.8104 73.2098 10.6714C73.1195 10.5301 72.984 10.4259 72.8033 10.3587C72.6226 10.2916 72.3956 10.258 72.1223 10.258H71.059V14.9487H70.6317V9.88966H72.1223C72.3794 9.88966 72.6099 9.91514 72.8137 9.9661C73.0176 10.0171 73.1913 10.097 73.3349 10.2058C73.4785 10.3147 73.5874 10.4525 73.6615 10.6193C73.738 10.7838 73.7762 10.9807 73.7762 11.21C73.7762 11.4185 73.7299 11.6073 73.6372 11.7764C73.5445 11.9432 73.4137 12.0798 73.2446 12.1864C73.0778 12.2906 72.8774 12.3555 72.6435 12.381L72.3724 12.5165ZM72.3412 14.9487H70.8123L71.0312 14.5839H72.3412C72.5913 14.5839 72.8045 14.5422 72.9805 14.4588C73.1589 14.3731 73.2955 14.2514 73.3905 14.0939C73.4855 13.9364 73.533 13.7488 73.533 13.531C73.533 13.3388 73.4913 13.1662 73.4079 13.0133C73.3245 12.8604 73.1971 12.74 73.0257 12.652C72.8543 12.5616 72.6365 12.5165 72.3724 12.5165H71.4864L71.4934 12.1551H72.7477L72.8241 12.2837C73.0512 12.3068 73.2492 12.3775 73.4183 12.4956C73.5897 12.6114 73.7218 12.7585 73.8144 12.9369C73.9094 13.1153 73.9569 13.311 73.9569 13.5241C73.9569 13.8299 73.8885 14.0893 73.7519 14.3024C73.6175 14.5132 73.4287 14.6742 73.1855 14.7854C72.9446 14.8943 72.6632 14.9487 72.3412 14.9487Z" fill="#858685"/>
<path d="M78.1403 14.5839V14.9487H75.2946V14.5839H78.1403ZM75.4232 9.88966V14.9487H74.9958V9.88966H75.4232ZM77.7859 12.1586V12.5234H75.2946V12.1586H77.7859ZM78.1229 9.88966V10.258H75.2946V9.88966H78.1229Z" fill="#858685"/>
<path d="M81.9728 14.5839V14.9487H79.3495V14.5839H81.9728ZM79.4745 9.88966V14.9487H79.0472V9.88966H79.4745Z" fill="#858685"/>
<path d="M84.5301 10.1919L82.7789 14.9487H82.3341L84.2452 9.88966H84.5544L84.5301 10.1919ZM86.1215 14.9487L84.3668 10.1919L84.3425 9.88966H84.6517L86.5662 14.9487H86.1215ZM85.8088 13.1627V13.531H83.1229V13.1627H85.8088Z" fill="#858685"/>
<path d="M87.3063 9.88966H88.9498C89.2996 9.88966 89.603 9.94641 89.8601 10.0599C90.1173 10.1734 90.3153 10.3414 90.4543 10.5637C90.5956 10.7838 90.6663 11.0548 90.6663 11.3768C90.6663 11.6154 90.6153 11.832 90.5134 12.0265C90.4138 12.2211 90.2759 12.3844 90.0999 12.5165C89.9239 12.6462 89.72 12.7354 89.4884 12.784L89.339 12.8396H87.5843L87.5773 12.4748H89.0471C89.3112 12.4748 89.5312 12.4238 89.7073 12.3219C89.8833 12.22 90.0154 12.0856 90.1034 11.9188C90.1937 11.7497 90.2389 11.5691 90.2389 11.3768C90.2389 11.1475 90.1891 10.9494 90.0895 10.7826C89.9922 10.6135 89.8474 10.4838 89.6551 10.3935C89.4629 10.3031 89.2278 10.258 88.9498 10.258H87.7337V14.9487H87.3063V9.88966ZM90.43 14.9487L89.1201 12.6867L89.5787 12.6832L90.8852 14.9035V14.9487H90.43Z" fill="#858685"/>
<path d="M94.8949 9.88966H95.3222V13.3156C95.3222 13.6955 95.2423 14.0117 95.0825 14.2642C94.9227 14.5167 94.7072 14.7055 94.4362 14.8306C94.1675 14.9556 93.8699 15.0182 93.5432 15.0182C93.2074 15.0182 92.9051 14.9556 92.6364 14.8306C92.3677 14.7055 92.1546 14.5167 91.997 14.2642C91.8418 14.0117 91.7642 13.6955 91.7642 13.3156V9.88966H92.1881V13.3156C92.1881 13.6098 92.246 13.8565 92.3619 14.0557C92.4777 14.2549 92.6375 14.4043 92.8414 14.5039C93.0452 14.6035 93.2792 14.6533 93.5432 14.6533C93.805 14.6533 94.0378 14.6035 94.2416 14.5039C94.4455 14.4043 94.6053 14.2549 94.7211 14.0557C94.8369 13.8565 94.8949 13.6098 94.8949 13.3156V9.88966Z" fill="#858685"/>
<path d="M99.3875 13.7048C99.3875 13.5658 99.3644 13.4419 99.318 13.333C99.2717 13.2241 99.1953 13.1268 99.0887 13.0411C98.9845 12.9531 98.8432 12.872 98.6648 12.7979C98.4888 12.7215 98.2687 12.6462 98.0046 12.5721C97.7521 12.5002 97.524 12.4215 97.3201 12.3358C97.1163 12.2501 96.9414 12.1516 96.7955 12.0404C96.6519 11.9293 96.5418 11.7995 96.4654 11.6513C96.3889 11.5007 96.3507 11.3258 96.3507 11.1266C96.3507 10.932 96.3924 10.7548 96.4758 10.595C96.5592 10.4352 96.6762 10.2973 96.8267 10.1815C96.9796 10.0657 97.1591 9.97652 97.3653 9.91398C97.5738 9.85144 97.8019 9.82016 98.0498 9.82016C98.4042 9.82016 98.71 9.88734 98.9671 10.0217C99.2265 10.156 99.4269 10.3379 99.5682 10.5672C99.7118 10.7942 99.7836 11.049 99.7836 11.3316H99.3563C99.3563 11.1116 99.3041 10.9158 99.1999 10.7444C99.098 10.5707 98.9497 10.4352 98.7551 10.3379C98.5629 10.2383 98.3278 10.1885 98.0498 10.1885C97.7718 10.1885 97.5379 10.2313 97.3479 10.317C97.1603 10.4004 97.0178 10.5128 96.9206 10.6541C96.8256 10.7931 96.7781 10.9483 96.7781 11.1197C96.7781 11.2401 96.8013 11.3513 96.8476 11.4532C96.8939 11.5528 96.9692 11.6467 97.0734 11.7347C97.18 11.8204 97.3201 11.9015 97.4939 11.9779C97.6676 12.052 97.8819 12.1227 98.1367 12.1898C98.4054 12.264 98.644 12.3462 98.8524 12.4365C99.0609 12.5269 99.237 12.6311 99.3806 12.7493C99.5242 12.8651 99.6331 13.0006 99.7072 13.1558C99.7813 13.311 99.8184 13.4917 99.8184 13.6978C99.8184 13.904 99.7744 14.0893 99.6863 14.2538C99.6006 14.4159 99.479 14.5537 99.3215 14.6672C99.1663 14.7807 98.9822 14.8676 98.769 14.9278C98.5583 14.9881 98.3278 15.0182 98.0776 15.0182C97.8529 15.0182 97.6294 14.9892 97.407 14.9313C97.1846 14.8734 96.9808 14.7842 96.7955 14.6638C96.6125 14.541 96.4654 14.3835 96.3542 14.1912C96.2453 13.999 96.1909 13.7696 96.1909 13.5033H96.6148C96.6148 13.7164 96.6576 13.8959 96.7434 14.0418C96.8291 14.1877 96.9426 14.3059 97.0839 14.3962C97.2275 14.4866 97.385 14.5526 97.5564 14.5943C97.7301 14.6337 97.9039 14.6533 98.0776 14.6533C98.344 14.6533 98.5745 14.614 98.769 14.5352C98.9659 14.4565 99.1177 14.3464 99.2242 14.2051C99.3331 14.0615 99.3875 13.8947 99.3875 13.7048Z" fill="#858685"/>
</svg>
